<svg xmlns="http://www.w3.org/2000/svg" xmlns:xlink="http://www.w3.org/1999/xlink" id="Layer_1" x="0px" y="0px" viewBox="0 0 2250 2250" style="enable-background:new 0 0 2250 2250;" xml:space="preserve"><style type="text/css">	.st0{fill:#1D1D1B;}</style><g>	<path class="st0" d="M1158.9,1907.5c-8.1,0-18.2-4.7-27.7-13.1c-7.4-6.5-17.2-17.7-26.3-36.3c-26.8-8.5-68-17.6-129.4-22.6  c-73.2-6-150.4-27.6-229.6-64.2c-63.2-29.2-127.8-68-191.9-115.3c-109.2-80.5-180.2-158.8-180.9-159.5l-0.8-0.9l0-1.2  c0.2-6.7,16.7-669.9,0-784.6l6-0.9c16.4,112.8,0.9,752.1,0.1,784.4c8.1,8.8,76.8,82.4,179.3,157.9  c100.2,73.8,254.1,164.7,418.3,178.3c49.7,4.1,92.5,11.4,125.5,21.3c-1.6-3.6-3.1-7.5-4.6-11.6c-21.1-58.4-25.8-215.3-14.1-466.4  c8.2-174.9,22-336.7,23.8-358.1c-178.5-59.2-366.1-149.9-492.3-215.7c-84.2-43.9-145-78.8-173.7-95.7c-20.3-12-37.5-22.5-49.7-30.4  c-19.2-12.4-19.1-13.8-18.9-15.8c0.1-1.5,1.2-2.7,2.7-3c151.2-28.2,729.6-308.6,735.5-311.4l1.4-0.7l1.4,0.8  c126.4,73.2,646.5,309.1,651.7,311.5l-2.5,5.5c-5.2-2.4-521.8-236.8-650.9-311c-15.6,7.6-154.9,74.8-309.3,144.4  c-213.2,96.1-354.8,151.8-421,165.7c19.1,14.3,112.1,70.3,242.4,138c124.9,64.9,310.8,154.4,487.2,212.7l2.3,0.7l-0.2,2.4  c-0.2,1.7-15.3,173.5-24,360.2c-11.6,246.8-6.8,407.2,13.7,464c2.1,5.8,4.3,11.2,6.6,16.1c6.8,2.2,13.2,4.6,19.1,7.1  c26.4,11.1,42.6,24.6,43.3,36c0.3,5.5-3.1,9.6-8.9,10.8C1161.5,1907.4,1160.2,1907.5,1158.9,1907.5z M1113.1,1860.9  c18.1,33.4,39.7,42.2,48.4,40.4c2.9-0.6,4.3-2.1,4.1-4.6c-0.4-6.7-11-18.8-39.6-30.9C1122.2,1864.2,1117.9,1862.6,1113.1,1860.9z   M1174.1,1808.8l-2.8-5.3c21.5-11.5,524-278.5,622.8-299.7c-1.5-22.8-12.2-189.9-18.8-367c-7.4-198.4-7.2-335.1,0.5-408.3  c-48.8,20.2-114.2,44.5-182.8,70c-7.1,2.6-14.2,5.3-21.4,8c9.2,61.1-5.6,191.4-6.3,197.2l-0.2,1.6l-1.4,0.7l-222.2,114.4l0.3-5.2  c3.8-70.7,1.8-173.6,0.7-219.9c-89.2,37.4-161.4,73.3-183,100.8c-33.5,42.7-36.5,90.2-33,122.5c3.7,35.3,15.6,60.7,15.8,61  l-5.4,2.6c-0.5-1.1-12.4-26.5-16.3-62.7c-3.6-33.5-0.6-82.8,34.3-127.1c22.7-28.9,95.8-65.3,187.6-103.6  c-0.2-7.3-0.4-12.6-0.4-15.3c-109.1-36-630.6-301.8-635.9-304.5l2.7-5.4c5.3,2.7,533,271.7,637,304.8l2,0.6l0.1,2.1  c0,0.3,0.2,5.8,0.4,15.2c66.8-27.7,142.9-56.3,216.6-83.7c-0.3-1.6-0.6-3.1-0.9-4.6c-31-14.6-586.8-276.9-669.2-325.8  c-5.5,5.1-24,21.7-48.8,38.3c-27.5,18.4-68.6,40.6-108.1,41.8l-0.2-6c73.2-2.3,153.9-79.3,154.7-80l1.7-1.6l2,1.2  c76.5,46.6,666,324.5,671.9,327.3l1.3,0.6l0.3,1.4c0.4,1.7,0.8,3.4,1.2,5.3c6.8-2.5,13.6-5.1,20.4-7.6  c70.1-26,136.7-50.8,185.7-71.2c2.1-17.5,4.6-30.9,7.7-40.2c14.3-43.5,44-61.3,67-59.6c14,1,24.4,9.2,26.4,20.9  c1.3,7.6-0.3,19.8-15.1,35.4c-13.6,14.3-35.2,28-64.1,40.6c-5.2,2.3-10.6,4.6-16.3,7c-20.8,187.7,17.6,773.7,18.1,780.2l0.2,2.7  l-2.6,0.5C1706.6,1525.8,1179.4,1806,1174.1,1808.8z M1348.3,892.8c1.1,44,3.1,145.6-0.4,217.4l211.4-108.8  c1.7-15.2,14.5-135.4,6.4-192.8C1493.6,835.5,1416.3,864.5,1348.3,892.8z M1848.2,627.8c-20.3,0-45.5,16.8-58.2,55.5  c-2.8,8.5-5.1,20.6-7,35.6c4.5-1.9,8.9-3.8,13.1-5.6c60.1-26.3,78.5-53.2,75.7-69.5c-1.5-9-9.5-15.1-20.9-15.9  C1850,627.9,1849.1,627.8,1848.2,627.8z M624.3,1581.1l-4.4-2.2c-105.4-52.7-164.5-111.2-165-111.8l4.3-4.3  c0.6,0.6,57.4,56.8,159.1,108.4v-180.1c-15.5-6.1-112.7-45.1-158.2-88.3v133h-6v-147.8l5.2,5.5c44.5,47,162,92.3,163.2,92.8  l1.9,0.7V1581.1z M545,1458.5c-36.5-9.9-61.4-35.3-62.4-36.4l4.3-4.2c0.2,0.3,24.8,25.3,59.6,34.8L545,1458.5z M575.1,1417.7  c-54-12.4-90.8-44.2-92.3-45.6l4-4.5c0.4,0.3,37.2,32.2,89.7,44.3L575.1,1417.7z"></path></g></svg>