<svg xmlns="http://www.w3.org/2000/svg" xmlns:xlink="http://www.w3.org/1999/xlink" id="Layer_1" x="0px" y="0px" viewBox="0 0 2250 2250" style="enable-background:new 0 0 2250 2250;" xml:space="preserve"><style type="text/css">	.st0{fill:#1D1D1B;}</style><g>	<path class="st0" d="M1441.1,1910.9c-100.1-60-302.5-110.3-585.4-145.5c-214-26.6-400.4-35.2-402.3-35.3l-13.8-0.6l12.2-6.3  c347.6-179,310.6-464.1,290.3-593.7c-22.5,39.9-59.6,90.3-104.3,140.1c-44.1,49.1-158,165.6-263.5,187  c-89.2,18.1-123.9,56.2-137.2,86.2c5.8,13.5,10.5,27.3,14.1,41.4c5.1,20.2,9.2,45.8,0.2,52.2c-2.8,2-6.5,1.9-10-0.3  c-11.8-7.5-24.4-39-18.1-73.6c1.3-6.8,3.2-13.5,5.7-19.8c-23.5-52.3-60.8-90.2-91.1-114.4c-41.4-33.1-78.8-48.6-79.2-48.8l-14.6-6  l15.8-1.1c72.5-4.9,122.6-36.8,157.6-100.4c32-58.1,48.9-138.2,66.9-223c17.5-82.5,37.2-176,74.1-263.8  c42.2-100.8,100.7-179.5,178.8-240.6c27.4-21.5,60.8-37.5,99.1-47.6c30.6-8.1,64.4-12.5,100.5-13c61.4-1,108.9,9.7,109.4,9.8  l2.5,0.6l0.3,2.5c0.1,0.5,6.5,46.9,23.3,98c15.4,46.7,42.9,106.9,86.5,128.6c27,13.4,57.6,10.7,91-8.1  c75.3-42.3,112.2-93.2,129.9-128.4c11.2-22.2,16.7-42.4,18.6-57.7c-15-6.8-22-12.6-22.6-19.2c-0.7-7.6,7.4-12.8,13.5-16  c5.2-2.8,10.4-0.9,13.5,4.8c2.9,5.4,4.2,14.4,3.4,25.9c1.2,0.5,2.4,1,3.7,1.5c18.3,7.3,44.8,15.8,78.5,26.5  c49.7,15.8,117.7,37.5,195.9,67.7c65.8,25.4,125.5,84.7,182.7,181.4c49.7,84.1,91.3,186,128,275.9  c35.1,86.1,68.3,167.4,102.8,219.6c42.9,65,103.3,97.9,179.6,97.9c1.6,0,3.2,0,4.9,0c58.9-1.1,105.5-22.1,105.9-22.3l13.2-6  L1915,1746.5l-2.2-6.6c-101.3-302.5-344.8-472.1-490.2-573.4c-27.6-19.2-51.4-35.8-70.1-50.4c7.9,42.9,16.7,110.1,26.3,215.2  c13.9,151.8,24.1,326.6,29.7,420.5c2.3,38.5,3.9,66.4,4.4,69c0-0.1-0.1-0.2-0.1-0.3l-7,2.3c-0.6-1.9-1.4-14.1-4.7-70.6  c-5.5-93.9-15.8-268.6-29.6-420.3c-7.7-84.3-15.6-150.8-23.3-197.7c-1.6-9.4-3.1-17.8-4.6-25.3c-28.5-23.5-41.5-41.5-32.7-57.3  c4.1-7.3,8.7-10.5,13.7-9.3c7.2,1.6,15.8,12.8,25.8,62.6c19.6,15.9,46.2,34.5,76.4,55.5c145.2,101.1,387.4,269.8,490.8,570.5  l261.4-346.5c-17.9,6.5-53.6,17.2-96.2,18c-35.6,0.7-68.5-5.7-97.9-19.1c-36.8-16.7-68.1-44.3-93-82  c-34.9-52.8-68.2-134.5-103.5-220.9c-36.6-89.7-78.1-191.3-127.5-274.9c-56.3-95.2-114.8-153.5-179-178.3  c-78-30.1-145.9-51.7-195.5-67.5c-36.6-11.7-62.9-20.2-80.7-27.4c-2.3,16.4-8.3,36.6-19.1,58c-18.2,36.1-56,88.2-132.8,131.5  c-35.6,20-68.6,22.8-97.9,8.2c-36.8-18.3-67.2-63.1-90.3-133c-13.1-39.7-20-76.7-22.5-91.9c-15.5,15.7-64,64-119.4,111.2  c-77.4,65.9-136.2,102.8-175.3,109.9c23.2,8.7,67.4,26.2,113.4,49.7c39.2,20,72.1,40.4,97.7,60.5c32.3,25.4,53.2,50.7,62,75.1  c0.6,1.6,1.1,3.2,1.6,4.8c4-6.1,8.3-12.4,12.9-18.7c30.5-42.1,81.3-97.8,150-123.6l2.9-1.1l153.9,270.4c2.7-31,9-66.4,18.3-102.2  c20.6-79.2,53.3-150.7,92-201.5c23.3-30.6,49.1-54.1,76.5-70c30.6-17.7,63.7-26,98.2-24.6l-0.3,7.3  c-63.4-2.6-120.1,28.2-168.5,91.7c-38.2,50-70.4,120.7-90.8,198.9c-11.4,43.7-17.1,81.9-18.9,111.7l33.9,59.5l-1.6,1.9  c-9.6,11.8-18.2,16-25.6,12.2c-13.5-6.8-15.3-38.4-14.5-63.7c0.1-2.7,0.2-5.4,0.4-8.2L985.6,782c-67,26.2-116.4,81.3-146.2,123.3  c-4.9,6.9-9.6,13.9-14.1,21c3.1,18.3-0.7,36.1-11.1,53.3c-6.1,10-11.4,17.7-15.6,22.7c-5,5.9-8.5,8.1-11.7,7.3  c-1.2-0.3-3.9-1.5-4.1-6c-0.6-10,11.5-41.2,34.8-78.7c-0.7-3.6-1.8-7.2-3.1-10.8c-15.1-41.7-69.1-87.2-156.1-131.6  c-66.2-33.8-128.5-55.1-129.2-55.3l-29.2-9.9l30.7,2.8c79,7.2,274.5-187.1,307.4-220.4c-14.9-2.8-53.9-9-101.3-8.3  c-55.6,0.9-134.6,11.8-195,59.1c-173,135.4-214,329.2-250.2,500.2c-18.1,85.4-35.1,166-67.6,225c-34.1,61.9-81.9,94.8-149.9,102.9  c14.6,7.3,40.3,21.5,68.3,43.9c24.8,19.8,46.1,41.9,63.4,65.6c10.7,14.7,19.8,30,27.3,45.8c6.7-13.2,16.4-25.3,28.9-36.1  c25.8-22.4,63.1-38.6,110.9-48.4c72.8-14.8,167.3-82.1,259.5-184.7c46.5-51.8,86-106.5,107.9-147.1c-5.4-34.3-8.4-55.1-2.1-63.6  c1.7-2.3,4-3.7,6.8-4.1c15.5-2.2,19.5,7,20.4,12.7c2,11.7-4.5,31.5-17.4,56.3c0.1,0.4,0.1,0.8,0.2,1.2  c10.1,64.1,27.1,171.5-3.8,284.3c-17,62.4-46.9,119.7-88.8,170.4c-47,56.9-110.4,106.8-188.4,148.6c46.5,2.5,208.1,12.2,389.4,34.7  c125.9,15.6,236.6,34.3,329,55.5c115.7,26.5,203,57.1,259.4,91L1441.1,1910.9z M233.5,1552.8c-1.2,3.9-2.1,7.7-2.8,11.1  c-6,32.9,6.6,60.9,14.8,66c0.6,0.4,1.4,0.8,1.8,0.5c0.1,0,6.7-5.4-3.1-44.5C241.3,1574.4,237.7,1563.3,233.5,1552.8z   M1148.7,1068.6c-0.6,30.6,3.7,49.8,10.6,53.3c4.5,2.3,10.8-3.6,15-8.4L1148.7,1068.6z M749.5,1056.9c-1,0-2.2,0.1-3.5,0.3  c-0.8,0.1-1.4,0.5-1.9,1.2c-4,5.4-1.8,23.8,1.9,48.1c9.2-18.9,13.7-33.8,12.2-42.6C757.6,1060.3,756,1056.9,749.5,1056.9z   M1322.6,1049.5c-1.1,0-3,1.5-5.4,5.8c-5.8,10.4,3.9,24.4,23.9,41.9c-9.2-41.9-16-47.1-18.2-47.6  C1322.8,1049.5,1322.7,1049.5,1322.6,1049.5z M819,936.8c-6.9,11.6-13,23.1-18,33.9c-7.4,16-10,25.3-10.7,29.8  c2.8-2.7,8.2-9.3,17.6-24.7C815.7,963.2,819.4,950.1,819,936.8z M1194,500.2c-0.5,0-0.9,0.2-1.2,0.4c-6.3,3.3-9.8,6.6-9.6,8.9  c0.2,2.3,3.4,6.1,15.9,12.1c0.4-8.9-0.7-15.6-2.6-19.1C1195.5,500.6,1194.7,500.2,1194,500.2z M1017.9,627.5  c-6.3,0-17.3-4.2-25.6-30.2c-2.4-7.4-3.3-15-3.1-22.8c-21.1-3.8-49-1.4-83.2,7.1l-1.8-7.1c34.8-8.7,63.5-11.2,85.5-7.4  c4.4-37.9,33.5-79.2,57.9-113.7c4.1-5.8,7.9-11.2,11.6-16.5c14.2-20.7,17.2-49.7,7.1-69c-7.5-14.3-21.2-21.9-39.7-22  c0,0-0.1,0-0.1,0c-16.8,0-29.2,5.2-37,15.5c-18.5,24.3-6.1,69.5-6,70l-7.1,2c-0.6-2-13.4-49.1,7.2-76.4  c9.3-12.2,23.7-18.4,42.9-18.4c0,0,0.1,0,0.1,0c21,0,37.4,9.2,46.1,25.9c11.5,21.9,8.4,53.3-7.6,76.5c-3.7,5.3-7.5,10.8-11.6,16.6  c-24.1,34.1-52.9,74.8-56.7,111c0.7,0.2,1.4,0.4,2.1,0.6c24.5,6.9,31.8,21.2,34,29.1c3.5,12.7-1.8,25.8-11.4,28.6  C1020.7,627.2,1019.5,627.5,1017.9,627.5z M996.5,576.2c0,6.5,0.8,12.8,2.8,18.9c6.7,20.8,15.1,26.4,20.2,24.9  c5.2-1.5,9.1-10,6.4-19.7c-1.7-6.4-7.8-18-28.9-23.9C996.9,576.3,996.7,576.2,996.5,576.2z M1050.9,579.8l-4.3-5.9  c0.5-0.4,12.4-9,34.7-14.8c20.4-5.3,53.7-9,96.8,3.3l-2,7.1C1096.8,547,1051.3,579.5,1050.9,579.8z"></path></g></svg>